# Made in Blockbench 4.12.1

o plane_selection
v 4.999999999999999 8.25 4
v 4.999999999999999 8.25 -4
v 5.000000000000001 -0.25 4
v 5.000000000000001 -0.25 -4




vn 1 2.220446049250313e-16 0

f 1/1/1 3/2/1 4/3/1 2/4/1
o plane_selection
v 4 0 4
v 4 0 -4
v -4 0 -4
v -4 0 4




vn 0 1 0

f 6/5/2 7/6/2 8/7/2 5/8/2
o plane_selection
v -5.000000000000001 8.25 4
v -5.000000000000001 8.25 -4
v -4.999999999999999 -0.25 4
v -4.999999999999999 -0.25 -4




vn 1 2.220446049250313e-16 0

f 9/9/3 11/10/3 12/11/3 10/12/3
o plane_selection
v 4 8 4
v 4 8 -4
v -4 8 -4
v -4 8 4




vn 0 1 0

f 14/13/4 15/14/4 16/15/4 13/16/4
o plane_selection
v -4 8 4
v -4 8 -4
v -12 8 -4
v -12 8 4




vn 0 1 0

f 18/17/5 19/18/5 20/19/5 17/20/5
o plane_selection
v 12 8 4
v 12 8 -4
v 4 8 -4
v 4 8 4




vn 0 1 0

f 22/21/6 23/22/6 24/23/6 21/24/6
o plane_selection
v -4 0 4
v -4 0 -4
v -12 0 -4
v -12 0 4




vn 0 1 0

f 26/25/7 27/26/7 28/27/7 25/28/7
o plane_selection
v 12 0 4
v 12 0 -4
v 4 0 -4
v 4 0 4




vn 0 1 0

f 30/29/8 31/30/8 32/31/8 29/32/8
