# Made in Blockbench 4.12.1
mtllib cluster1post.mtl

o cuboid
v -1.5000000000000007 1.1250000000000002 -0.40624999999999756
v -1.4999999999999991 1.1250000000000002 0.5937500000000024
v -1.5000000000000007 0.8750000000000002 -0.40624999999999756
v -1.4999999999999991 0.8750000000000001 0.5937500000000024
v 1.4999999999999993 1.1249999999999998 -0.40625000000000244
v 1.5000000000000009 1.1249999999999998 0.5937499999999976
v 1.4999999999999993 0.8749999999999999 -0.4062500000000025
v 1.5000000000000009 0.8749999999999998 0.5937499999999976
vt 0.328125 0.5625
vt 0.203125 0.5625
vt 0.203125 0.53125
vt 0.328125 0.53125
vt 0.4609375 0.53125
vt 0.4609375 0.5625
vt 0.3359375 0.5625
vt 0.3359375 0.53125
vt 0 0.875
vt 0.375 0.875
vt 0.375 1
vt 0 1
vt 0.375 0.7421875
vt 0.375 0.8671875
vt 0 0.8671875
vt 0 0.7421875
vt 0.734375 0.703125
vt 0.734375 0.734375
vt 0.359375 0.734375
vt 0.359375 0.703125
vt 0.734375 0.6953125
vt 0.359375 0.6953125
vt 0.359375 0.6640625
vt 0.734375 0.6640625
vn -1 1.2246467991473512e-16 1.6445178552260131e-15
vn 1 -1.2246467991473512e-16 -1.6445178552260131e-15
vn 1.2246467991473532e-16 1 1.2246467991473512e-16
vn -1.2246467991473532e-16 -1 -1.2246467991473512e-16
vn -1.6445178552260131e-15 1.2246467991473532e-16 -1
vn 1.6445178552260131e-15 -1.2246467991473532e-16 1
usemtl m_a2e197ea-6433-587f-3ed6-0557d58fb074
f 2/1/1 1/2/1 3/3/1 4/4/1
f 7/5/2 5/6/2 6/7/2 8/8/2
f 5/9/3 1/10/3 2/11/3 6/12/3
f 4/13/4 3/14/4 7/15/4 8/16/4
f 3/17/5 1/18/5 5/19/5 7/20/5
f 6/21/6 2/22/6 4/23/6 8/24/6
o cuboid
v -1.4687499999999982 -0.005545946273479929 -0.3280085565110571
v -1.4687499999999998 1.0183941090877584 0.38896198892775263
v -1.4687499999999978 -0.14894005536124189 -0.12322054543880939
v -1.4687499999999993 0.8749999999999964 0.5937500000000003
v -1.2812499999999982 -0.005545946273479707 -0.3280085565110572
v -1.2812499999999998 1.0183941090877586 0.3889619889277525
v -1.2812499999999978 -0.14894005536124166 -0.1232205454388095
v -1.2812499999999993 0.8749999999999967 0.5937500000000002
vt 0.2734375 0.625
vt 0.1171875 0.625
vt 0.1171875 0.59375
vt 0.2734375 0.59375
vt 0.5390625 0.96875
vt 0.5390625 1
vt 0.3828125 1
vt 0.3828125 0.96875
vt 0.0859375 0.4140625
vt 0.109375 0.4140625
vt 0.109375 0.5703125
vt 0.0859375 0.5703125
vt 0.4921875 0.4453125
vt 0.4921875 0.6015625
vt 0.46875 0.6015625
vt 0.46875 0.4453125
vt 0.0546875 0.4765625
vt 0.0546875 0.5078125
vt 0.03125 0.5078125
vt 0.03125 0.4765625
vt 0.5234375 0.625
vt 0.5 0.625
vt 0.5 0.59375
vt 0.5234375 0.59375
vn -1 -1.8601356342846533e-15 4.734192436264282e-16
vn 1 1.8601356342846533e-15 -4.734192436264282e-16
vn -1.4547323094649238e-15 0.5735764363510478 -0.8191520442889907
vn 1.4547323094649238e-15 -0.5735764363510478 0.8191520442889907
vn 1.2521917848198173e-15 -0.8191520442889909 -0.5735764363510477
vn -1.2521917848198173e-15 0.8191520442889909 0.5735764363510477
usemtl m_a2e197ea-6433-587f-3ed6-0557d58fb074
f 10/25/7 9/26/7 11/27/7 12/28/7
f 15/29/8 13/30/8 14/31/8 16/32/8
f 13/33/9 9/34/9 10/35/9 14/36/9
f 12/37/10 11/38/10 15/39/10 16/40/10
f 11/41/11 9/42/11 13/43/11 15/44/11
f 14/45/12 10/46/12 12/47/12 16/48/12
o cuboid
v 1.2812500000000018 -0.005545946273474822 -0.3280085565110584
v 1.2812500000000002 1.0183941090877635 0.3889619889277513
v 1.2812500000000022 -0.14894005536123678 -0.12322054543881072
v 1.2812500000000007 0.8750000000000016 0.593749999999999
v 1.4687500000000018 -0.0055459462734746 -0.32800855651105854
v 1.4687500000000002 1.0183941090877637 0.3889619889277512
v 1.4687500000000022 -0.14894005536123633 -0.12322054543881084
v 1.4687500000000007 0.8750000000000018 0.5937499999999989
vt 0.5390625 0.9609375
vt 0.3828125 0.9609375
vt 0.3828125 0.9296875
vt 0.5390625 0.9296875
vt 0.5390625 0.890625
vt 0.5390625 0.921875
vt 0.3828125 0.921875
vt 0.3828125 0.890625
vt 0.1171875 0.3671875
vt 0.140625 0.3671875
vt 0.140625 0.5234375
vt 0.1171875 0.5234375
vt 0.171875 0.3671875
vt 0.171875 0.5234375
vt 0.1484375 0.5234375
vt 0.1484375 0.3671875
vt 0.5234375 0.5546875
vt 0.5234375 0.5859375
vt 0.5 0.5859375
vt 0.5 0.5546875
vt 0.5234375 0.546875
vt 0.5 0.546875
vt 0.5 0.515625
vt 0.5234375 0.515625
vn -1 -1.8601356342846533e-15 4.734192436264282e-16
vn 1 1.8601356342846533e-15 -4.734192436264282e-16
vn -1.4547323094649238e-15 0.5735764363510478 -0.8191520442889907
vn 1.4547323094649238e-15 -0.5735764363510478 0.8191520442889907
vn 1.2521917848198173e-15 -0.8191520442889909 -0.5735764363510477
vn -1.2521917848198173e-15 0.8191520442889909 0.5735764363510477
usemtl m_a2e197ea-6433-587f-3ed6-0557d58fb074
f 18/49/13 17/50/13 19/51/13 20/52/13
f 23/53/14 21/54/14 22/55/14 24/56/14
f 21/57/15 17/58/15 18/59/15 22/60/15
f 20/61/16 19/62/16 23/63/16 24/64/16
f 19/65/17 17/66/17 21/67/17 23/68/17
f 22/69/18 18/70/18 20/71/18 24/72/18
o cuboid
v 1.2812499999999996 1.0183941090877586 -0.20146198892775247
v 1.281249999999998 -0.005545946273479485 0.5155085565110573
v 1.2812499999999993 0.8749999999999968 -0.4062500000000002
v 1.2812499999999978 -0.14894005536124144 0.31072054543880956
v 1.4687499999999996 1.0183941090877584 -0.20146198892775258
v 1.468749999999998 -0.005545946273479929 0.5155085565110572
v 1.4687499999999993 0.8749999999999964 -0.40625000000000033
v 1.4687499999999978 -0.14894005536124166 0.31072054543880945
vt 0.5390625 0.8828125
vt 0.3828125 0.8828125
vt 0.3828125 0.8515625
vt 0.5390625 0.8515625
vt 0.5390625 0.8125
vt 0.5390625 0.84375
vt 0.3828125 0.84375
vt 0.3828125 0.8125
vt 0.1796875 0.3671875
vt 0.203125 0.3671875
vt 0.203125 0.5234375
vt 0.1796875 0.5234375
vt 0.234375 0.3671875
vt 0.234375 0.5234375
vt 0.2109375 0.5234375
vt 0.2109375 0.3671875
vt 0.5234375 0.4765625
vt 0.5234375 0.5078125
vt 0.5 0.5078125
vt 0.5 0.4765625
vt 0.0546875 0.46875
vt 0.03125 0.46875
vt 0.03125 0.4375
vt 0.0546875 0.4375
vn -1 1.8601356342846533e-15 4.734192436264282e-16
vn 1 -1.8601356342846533e-15 -4.734192436264282e-16
vn 1.4547323094649238e-15 0.5735764363510478 0.8191520442889907
vn -1.4547323094649238e-15 -0.5735764363510478 -0.8191520442889907
vn 1.2521917848198173e-15 0.8191520442889909 -0.5735764363510477
vn -1.2521917848198173e-15 -0.8191520442889909 0.5735764363510477
usemtl m_a2e197ea-6433-587f-3ed6-0557d58fb074
f 26/73/19 25/74/19 27/75/19 28/76/19
f 31/77/20 29/78/20 30/79/20 32/80/20
f 29/81/21 25/82/21 26/83/21 30/84/21
f 28/85/22 27/86/22 31/87/22 32/88/22
f 27/89/23 25/90/23 29/91/23 31/92/23
f 30/93/24 26/94/24 28/95/24 32/96/24
o cuboid
v -1.4687500000000004 1.018394109087764 -0.2014619889277512
v -1.468750000000002 -0.005545946273474378 0.5155085565110586
v -1.4687500000000007 0.8750000000000019 -0.4062499999999989
v -1.4687500000000022 -0.14894005536123633 0.3107205454388109
v -1.2812500000000004 1.0183941090877635 -0.20146198892775125
v -1.281250000000002 -0.005545946273474822 0.5155085565110585
v -1.2812500000000007 0.8750000000000016 -0.406249999999999
v -1.2812500000000022 -0.14894005536123678 0.3107205454388108
vt 0.5390625 0.8046875
vt 0.3828125 0.8046875
vt 0.3828125 0.7734375
vt 0.5390625 0.7734375
vt 0.4375 0.5703125
vt 0.4375 0.6015625
vt 0.28125 0.6015625
vt 0.28125 0.5703125
vt 0.2421875 0.3671875
vt 0.265625 0.3671875
vt 0.265625 0.5234375
vt 0.2421875 0.5234375
vt 0.296875 0.3671875
vt 0.296875 0.5234375
vt 0.2734375 0.5234375
vt 0.2734375 0.3671875
vt 0.5546875 0.59375
vt 0.5546875 0.625
vt 0.53125 0.625
vt 0.53125 0.59375
vt 0.5546875 0.5859375
vt 0.53125 0.5859375
vt 0.53125 0.5546875
vt 0.5546875 0.5546875
vn -1 1.8601356342846533e-15 4.734192436264282e-16
vn 1 -1.8601356342846533e-15 -4.734192436264282e-16
vn 1.4547323094649238e-15 0.5735764363510478 0.8191520442889907
vn -1.4547323094649238e-15 -0.5735764363510478 -0.8191520442889907
vn 1.2521917848198173e-15 0.8191520442889909 -0.5735764363510477
vn -1.2521917848198173e-15 -0.8191520442889909 0.5735764363510477
usemtl m_a2e197ea-6433-587f-3ed6-0557d58fb074
f 34/97/25 33/98/25 35/99/25 36/100/25
f 39/101/26 37/102/26 38/103/26 40/104/26
f 37/105/27 33/106/27 34/107/27 38/108/27
f 36/109/28 35/110/28 39/111/28 40/112/28
f 35/113/29 33/114/29 37/115/29 39/116/29
f 38/117/30 34/118/30 36/119/30 40/120/30
o cuboid
v -0.43749999999999994 1.1812500000000001 0.09375000000000072
v -0.43749999999999933 1.18125 0.4687500000000007
v -0.43749999999999994 1.13125 0.09375000000000072
v -0.43749999999999933 1.13125 0.4687500000000007
v 0.43750000000000006 1.18125 0.09374999999999929
v 0.43750000000000067 1.18125 0.4687499999999993
v 0.43750000000000006 1.1312499999999999 0.09374999999999928
v 0.43750000000000067 1.1312499999999999 0.4687499999999993
vt 0.578125 0.5
vt 0.53125 0.5
vt 0.53125 0.4921875
vt 0.578125 0.4921875
vt 0.578125 0.4765625
vt 0.578125 0.484375
vt 0.53125 0.484375
vt 0.53125 0.4765625
vt 0.359375 0.609375
vt 0.46875 0.609375
vt 0.46875 0.65625
vt 0.359375 0.65625
vt 0.109375 0.578125
vt 0.109375 0.625
vt 0 0.625
vt 0 0.578125
vt 0.5859375 0.6484375
vt 0.5859375 0.65625
vt 0.4765625 0.65625
vt 0.4765625 0.6484375
vt 0.5859375 0.640625
vt 0.4765625 0.640625
vt 0.4765625 0.6328125
vt 0.5859375 0.6328125
vn -1 1.2246467991473512e-16 1.6445178552260131e-15
vn 1 -1.2246467991473512e-16 -1.6445178552260131e-15
vn 1.2246467991473532e-16 1 1.2246467991473512e-16
vn -1.2246467991473532e-16 -1 -1.2246467991473512e-16
vn -1.6445178552260131e-15 1.2246467991473532e-16 -1
vn 1.6445178552260131e-15 -1.2246467991473532e-16 1
usemtl m_a2e197ea-6433-587f-3ed6-0557d58fb074
f 42/121/31 41/122/31 43/123/31 44/124/31
f 47/125/32 45/126/32 46/127/32 48/128/32
f 45/129/33 41/130/33 42/131/33 46/132/33
f 44/133/34 43/134/34 47/135/34 48/136/34
f 43/137/35 41/138/35 45/139/35 47/140/35
f 46/141/36 42/142/36 44/143/36 48/144/36
o cuboid
v -0.31250000000000067 1.1812500000000001 -0.3749999999999995
v -0.3125 1.1812500000000001 0.06250000000000053
v -0.31250000000000067 1.13125 -0.3749999999999995
v -0.3125 1.13125 0.06250000000000051
v 0.31249999999999933 1.1812500000000001 -0.3750000000000005
v 0.3125 1.18125 0.06249999999999949
v 0.31249999999999933 1.13125 -0.3750000000000005
v 0.3125 1.1312499999999999 0.062499999999999487
vt 0.5859375 0.515625
vt 0.53125 0.515625
vt 0.53125 0.5078125
vt 0.5859375 0.5078125
vt 0.5546875 0.4609375
vt 0.5546875 0.46875
vt 0.5 0.46875
vt 0.5 0.4609375
vt 0.1171875 0.53125
vt 0.1953125 0.53125
vt 0.1953125 0.5859375
vt 0.1171875 0.5859375
vt 0.078125 0.515625
vt 0.078125 0.5703125
vt 0 0.5703125
vt 0 0.515625
vt 0.609375 0.5390625
vt 0.609375 0.546875
vt 0.53125 0.546875
vt 0.53125 0.5390625
vt 0.609375 0.53125
vt 0.53125 0.53125
vt 0.53125 0.5234375
vt 0.609375 0.5234375
vn -1 1.2246467991473512e-16 1.6445178552260131e-15
vn 1 -1.2246467991473512e-16 -1.6445178552260131e-15
vn 1.2246467991473532e-16 1 1.2246467991473512e-16
vn -1.2246467991473532e-16 -1 -1.2246467991473512e-16
vn -1.6445178552260131e-15 1.2246467991473532e-16 -1
vn 1.6445178552260131e-15 -1.2246467991473532e-16 1
usemtl m_a2e197ea-6433-587f-3ed6-0557d58fb074
f 50/145/37 49/146/37 51/147/37 52/148/37
f 55/149/38 53/150/38 54/151/38 56/152/38
f 53/153/39 49/154/39 50/155/39 54/156/39
f 52/157/40 51/158/40 55/159/40 56/160/40
f 51/161/41 49/162/41 53/163/41 55/164/41
f 54/165/42 50/166/42 52/167/42 56/168/42
o cuboid
v -0.18750000000000042 1.728125 -0.2499999999999996
v -0.1875000000000002 1.728125 -0.12499999999999961
v -0.1875000000000005 1.178125 -0.24999999999999967
v -0.18750000000000028 1.178125 -0.1249999999999997
v 0.18749999999999958 1.728125 -0.2500000000000002
v 0.1874999999999998 1.728125 -0.12500000000000022
v 0.1874999999999995 1.178125 -0.2500000000000003
v 0.18749999999999972 1.178125 -0.1250000000000003
vt 0.4296875 0.5234375
vt 0.4140625 0.5234375
vt 0.4140625 0.453125
vt 0.4296875 0.453125
vt 0.453125 0.453125
vt 0.453125 0.5234375
vt 0.4375 0.5234375
vt 0.4375 0.453125
vt 0.28125 0.609375
vt 0.328125 0.609375
vt 0.328125 0.625
vt 0.28125 0.625
vt 0.25 0.5703125
vt 0.25 0.5859375
vt 0.203125 0.5859375
vt 0.203125 0.5703125
vt 0.3515625 0.453125
vt 0.3515625 0.5234375
vt 0.3046875 0.5234375
vt 0.3046875 0.453125
vt 0.40625 0.5234375
vt 0.359375 0.5234375
vt 0.359375 0.453125
vt 0.40625 0.453125
vn -1 1.2246467991473512e-16 1.6445178552260131e-15
vn 1 -1.2246467991473512e-16 -1.6445178552260131e-15
vn 1.2246467991473532e-16 1 1.2246467991473512e-16
vn -1.2246467991473532e-16 -1 -1.2246467991473512e-16
vn -1.6445178552260131e-15 1.2246467991473532e-16 -1
vn 1.6445178552260131e-15 -1.2246467991473532e-16 1
usemtl m_a2e197ea-6433-587f-3ed6-0557d58fb074
f 58/169/43 57/170/43 59/171/43 60/172/43
f 63/173/44 61/174/44 62/175/44 64/176/44
f 61/177/45 57/178/45 58/179/45 62/180/45
f 60/181/46 59/182/46 63/183/46 64/184/46
f 59/185/47 57/186/47 61/187/47 63/188/47
f 62/189/48 58/190/48 60/191/48 64/192/48
o cuboid
v -0.6875000000000002 2.1656250000000004 -0.12499999999999875
v -0.6875000000000001 2.1656250000000004 -0.06249999999999874
v -0.6875000000000003 1.365625 -0.12499999999999883
v -0.6875000000000002 1.365625 -0.062499999999998834
v 0.6874999999999998 2.1656250000000004 -0.125000000000001
v 0.6874999999999999 2.1656250000000004 -0.062500000000001
v 0.6874999999999997 1.3656249999999999 -0.1250000000000011
v 0.6874999999999998 1.3656249999999999 -0.0625000000000011
vt 0.0078125 0.5078125
vt 0 0.5078125
vt 0 0.40625
vt 0.0078125 0.40625
vt 0.0234375 0.40625
vt 0.0234375 0.5078125
vt 0.015625 0.5078125
vt 0.015625 0.40625
vt 0.3828125 0.7578125
vt 0.5546875 0.7578125
vt 0.5546875 0.765625
vt 0.3828125 0.765625
vt 0.5546875 0.7421875
vt 0.5546875 0.75
vt 0.3828125 0.75
vt 0.3828125 0.7421875
vt 0.171875 0.6328125
vt 0.171875 0.734375
vt 0 0.734375
vt 0 0.6328125
vt 0.3515625 0.734375
vt 0.1796875 0.734375
vt 0.1796875 0.6328125
vt 0.3515625 0.6328125
vn -1 1.2246467991473512e-16 1.6445178552260131e-15
vn 1 -1.2246467991473512e-16 -1.6445178552260131e-15
vn 1.2246467991473532e-16 1 1.2246467991473512e-16
vn -1.2246467991473532e-16 -1 -1.2246467991473512e-16
vn -1.6445178552260131e-15 1.2246467991473532e-16 -1
vn 1.6445178552260131e-15 -1.2246467991473532e-16 1
usemtl m_a2e197ea-6433-587f-3ed6-0557d58fb074
f 66/193/49 65/194/49 67/195/49 68/196/49
f 71/197/50 69/198/50 70/199/50 72/200/50
f 69/201/51 65/202/51 66/203/51 70/204/51
f 68/205/52 67/206/52 71/207/52 72/208/52
f 67/209/53 65/210/53 69/211/53 71/212/53
f 70/213/54 66/214/54 68/215/54 72/216/54