# Made in Blockbench 4.12.1
mtllib model.mtl

o plane_selection
v 4.999999999999999 8 4
v 4.999999999999999 8 -4
v 5.000000000000001 0 4
v 5.000000000000001 0 -4
vt 0 1
vt 0 1
vt 0 1
vt 0 1
vn 1 2.220446049250313e-16 0
usemtl none
f 1/1/1 3/2/1 4/3/1 2/4/1
o plane_selection
v -5 0 4
v -5 0 -4
v 5 0 4
v 5 0 -4
v 4 0 4
v 4 0 -4
v -4 0 -4
v -4 0 4
vt 0 1
vt 0 1
vt 0 1
vt 0 1
vt 0 1
vt 0 1
vt 0 1
vt 0 1
vt 0 1
vt 0 1
vt 0 1
vt 0 1
vn 0 1 0
vn 0 1 0
vn 0 1 0
usemtl none
f 8/5/2 10/6/2 9/7/2 7/8/2
f 5/9/3 12/10/3 11/11/3 6/12/3
f 10/13/4 11/14/4 12/15/4 9/16/4
o plane_selection
v -5.000000000000001 8 4
v -5.000000000000001 8 -4
v -4.999999999999999 0 4
v -4.999999999999999 0 -4
vt 0 1
vt 0 1
vt 0 1
vt 0 1
vn 1 2.220446049250313e-16 0
usemtl none
f 13/17/5 15/18/5 16/19/5 14/20/5
o plane_selection
v -5 8 4
v -5 8 -4
v 5 8 4
v 5 8 -4
v 4 8 4
v 4 8 -4
v -4 8 -4
v -4 8 4
vt 0 1
vt 0 1
vt 0 1
vt 0 1
vt 0 1
vt 0 1
vt 0 1
vt 0 1
vt 0 1
vt 0 1
vt 0 1
vt 0 1
vn 0 1 0
vn 0 1 0
vn 0 1 0
usemtl none
f 20/21/6 22/22/6 21/23/6 19/24/6
f 17/25/7 24/26/7 23/27/7 18/28/7
f 22/29/8 23/30/8 24/31/8 21/32/8